<svg xmlns="http://www.w3.org/2000/svg" viewBox="0 0 900 506" role="img" aria-labelledby="title desc">
  <title id="title">Resilience sensing paper graphic</title>
  <desc id="desc">A scholarly graphic showing satellite indicators for infrastructure resilience.</desc>
  <rect width="900" height="506" fill="#f7f7f2"/>
  <circle cx="452" cy="250" r="168" fill="#ffffff" stroke="#d9ded7" stroke-width="3"/>
  <path d="M304 280c58-86 124-100 198-42s118 52 172-26" stroke="#315c52" stroke-width="18" fill="none" stroke-linecap="round"/>
  <path d="M296 336c70-32 134-36 192-10s122 18 204-32" stroke="#9a5b3f" stroke-width="12" fill="none" stroke-linecap="round"/>
  <path d="M142 98c172 84 438 84 616 0" stroke="#1f433c" stroke-width="9" fill="none" stroke-linecap="round"/>
  <rect x="408" y="70" width="88" height="48" rx="6" fill="#1f433c"/>
  <path d="M390 78h-76M510 78h76M390 108h-76M510 108h76" stroke="#315c52" stroke-width="8" stroke-linecap="round"/>
  <circle cx="352" cy="280" r="22" fill="#9a5b3f"/>
  <circle cx="512" cy="238" r="22" fill="#9a5b3f"/>
  <circle cx="650" cy="214" r="22" fill="#9a5b3f"/>
</svg>
